<?xml version="1.0" encoding="UTF-8" standalone="no"?>
<svg
   xmlns:dc="http://purl.org/dc/elements/1.1/"
   xmlns:cc="http://creativecommons.org/ns#"
   xmlns:rdf="http://www.w3.org/1999/02/22-rdf-syntax-ns#"
   xmlns:svg="http://www.w3.org/2000/svg"
   xmlns="http://www.w3.org/2000/svg"
   id="svg8"
   version="1.1"
   viewBox="0 0 210 297"
   height="297mm"
   width="210mm">
  <defs
     id="defs2" />
  <metadata
     id="metadata5">
    <rdf:RDF>
      <cc:Work
         rdf:about="">
        <dc:format>image/svg+xml</dc:format>
        <dc:type
           rdf:resource="http://purl.org/dc/dcmitype/StillImage" />
        <dc:title />
      </cc:Work>
    </rdf:RDF>
  </metadata>
  <g
     id="layer1">
    <g
       id="text12"
       style="font-style:normal;font-variant:normal;font-weight:bold;font-stretch:normal;font-size:38.80559921px;line-height:1.25;font-family:Ubuntu;-inkscape-font-specification:'Ubuntu Bold';fill:#000000;fill-opacity:1;stroke:none;stroke-width:0.26458299"
       aria-label="Roadmap">
      <path
         id="path10"
         style="font-style:normal;font-variant:normal;font-weight:bold;font-stretch:normal;font-size:38.80559921px;font-family:Ubuntu;-inkscape-font-specification:'Ubuntu Bold';stroke-width:0.26458299"
         d="m 29.854864,118.8949 q 6.053673,0 9.274538,2.17311 3.220865,2.13431 3.220865,6.67457 0,2.83281 -1.319391,4.61786 -1.280585,1.74626 -3.725337,2.7552 0.814917,1.00895 1.707446,2.32834 0.892529,1.28058 1.746252,2.71639 0.892529,1.397 1.707446,2.94922 0.814918,1.51342 1.513419,2.98804 h -6.79098 q -0.737307,-1.31939 -1.513419,-2.67759 -0.737306,-1.3582 -1.552223,-2.63878 -0.776112,-1.28059 -1.552224,-2.40595 -0.776112,-1.16417 -1.552224,-2.0955 H 28.031 v 9.81782 H 21.977327 V 119.5934 q 1.979086,-0.38805 4.074588,-0.54328 2.134308,-0.15522 3.802949,-0.15522 z m 0.34925,5.16115 q -0.659695,0 -1.202974,0.0388 -0.504472,0.0388 -0.97014,0.0776 v 7.29545 h 1.707447 q 3.414893,0 4.889505,-0.85372 1.474613,-0.85372 1.474613,-2.91042 0,-1.97908 -1.513418,-2.794 -1.474613,-0.85372 -4.385033,-0.85372 z" />
      <path
         id="path12"
         style="font-style:normal;font-variant:normal;font-weight:bold;font-stretch:normal;font-size:38.80559921px;font-family:Ubuntu;-inkscape-font-specification:'Ubuntu Bold';stroke-width:0.26458299"
         d="m 65.617255,135.85295 q 0,2.40594 -0.698501,4.42384 -0.698501,1.97908 -2.017891,3.41489 -1.319391,1.397 -3.182059,2.17311 -1.823864,0.77611 -4.113394,0.77611 -2.250725,0 -4.113393,-0.77611 -1.823864,-0.77611 -3.143254,-2.17311 -1.31939,-1.43581 -2.056697,-3.41489 -0.737306,-2.0179 -0.737306,-4.42384 0,-2.40595 0.737306,-4.38504 0.776112,-1.97908 2.095503,-3.37608 1.358196,-1.397 3.182059,-2.17312 1.862669,-0.77611 4.035782,-0.77611 2.211919,0 4.035782,0.77611 1.862669,0.77612 3.18206,2.17312 1.31939,1.397 2.056696,3.37608 0.737307,1.97909 0.737307,4.38504 z m -5.898451,0 q 0,-2.67759 -1.086557,-4.19101 -1.047751,-1.55222 -3.026837,-1.55222 -1.979085,0 -3.065642,1.55222 -1.086557,1.51342 -1.086557,4.19101 0,2.67758 1.086557,4.26861 1.086557,1.55223 3.065642,1.55223 1.979086,0 3.026837,-1.55223 1.086557,-1.59103 1.086557,-4.26861 z" />
      <path
         id="path14"
         style="font-style:normal;font-variant:normal;font-weight:bold;font-stretch:normal;font-size:38.80559921px;font-family:Ubuntu;-inkscape-font-specification:'Ubuntu Bold';stroke-width:0.26458299"
         d="m 77.896193,142.06184 q 0.853723,0 1.629835,-0.0388 0.776112,-0.0388 1.241779,-0.11642 v -4.38503 q -0.34925,-0.0776 -1.047751,-0.15522 -0.698501,-0.0776 -1.280585,-0.0776 -0.814918,0 -1.552224,0.11642 -0.698501,0.0776 -1.241779,0.34925 -0.543279,0.27164 -0.853723,0.73731 -0.310445,0.46567 -0.310445,1.16417 0,1.35819 0.892529,1.90147 0.931334,0.50447 2.522364,0.50447 z M 77.430525,125.1426 q 2.56117,0 4.268616,0.58209 1.707447,0.58208 2.716392,1.66864 1.047751,1.08655 1.474613,2.63878 0.426862,1.55222 0.426862,3.4537 v 12.02973 q -1.24178,0.27164 -3.453699,0.62089 -2.211919,0.38806 -5.355172,0.38806 -1.979086,0 -3.608921,-0.34925 -1.59103,-0.34925 -2.755198,-1.12537 -1.164168,-0.81491 -1.785057,-2.0955 -0.62089,-1.28058 -0.62089,-3.14325 0,-1.78506 0.698501,-3.02684 0.737306,-1.24178 1.94028,-1.97908 1.202973,-0.73731 2.755197,-1.04775 1.552224,-0.34926 3.220865,-0.34926 1.125363,0 1.979086,0.11642 0.892529,0.0776 1.435807,0.23284 v -0.54328 q 0,-1.47462 -0.892529,-2.36714 -0.892529,-0.89253 -3.104448,-0.89253 -1.474613,0 -2.91042,0.23283 -1.435807,0.19403 -2.483558,0.58208 l -0.737306,-4.65667 q 0.504472,-0.15522 1.241779,-0.31044 0.776112,-0.19403 1.66864,-0.31045 0.892529,-0.15522 1.862669,-0.23283 1.008946,-0.11642 2.017891,-0.11642 z" />
      <path
         id="path16"
         style="font-style:normal;font-variant:normal;font-weight:bold;font-stretch:normal;font-size:38.80559921px;font-family:Ubuntu;-inkscape-font-specification:'Ubuntu Bold';stroke-width:0.26458299"
         d="m 96.473766,135.73653 q 0,2.67759 1.202974,4.30742 1.202974,1.62984 3.57012,1.62984 0.77611,0 1.4358,-0.0388 0.6597,-0.0776 1.08656,-0.15522 v -10.51632 q -0.54328,-0.34925 -1.43581,-0.58208 -0.85372,-0.23284 -1.74625,-0.23284 -4.113394,0 -4.113394,5.58801 z m 13.077484,9.7014 q -0.77611,0.23283 -1.78505,0.46567 -1.00895,0.19403 -2.13431,0.34925 -1.08656,0.15522 -2.25073,0.23283 -1.12536,0.11642 -2.17311,0.11642 -2.522364,0 -4.50145,-0.73731 -1.979086,-0.7373 -3.337281,-2.0955 -1.358196,-1.397 -2.095503,-3.33728 -0.698501,-1.97909 -0.698501,-4.42384 0,-2.48356 0.62089,-4.46264 0.62089,-2.0179 1.785058,-3.4149 1.164168,-1.397 2.832808,-2.1343 1.707447,-0.73731 3.88056,-0.73731 1.202969,0 2.134309,0.23283 0.97014,0.23284 1.94028,0.6597 v -9.23573 l 5.78203,-0.93134 z" />
      <path
         id="path18"
         style="font-style:normal;font-variant:normal;font-weight:bold;font-stretch:normal;font-size:38.80559921px;font-family:Ubuntu;-inkscape-font-specification:'Ubuntu Bold';stroke-width:0.26458299"
         d="m 126.18006,135.27086 q 0,-2.794 -0.73731,-3.95817 -0.6985,-1.16417 -2.44475,-1.16417 -0.54328,0 -1.12536,0.0776 -0.58209,0.0388 -1.12537,0.11641 v 15.75508 h -5.78203 v -19.71325 q 0.73731,-0.19403 1.70745,-0.38805 1.00894,-0.23284 2.0955,-0.38806 1.12536,-0.19403 2.28953,-0.27164 1.16417,-0.11642 2.28953,-0.11642 2.21192,0 3.57011,0.58209 1.39701,0.54328 2.28953,1.31939 1.24178,-0.89253 2.83281,-1.397 1.62984,-0.50448 2.98803,-0.50448 2.44476,0 3.99698,0.6985 1.59103,0.6597 2.52237,1.90148 0.93133,1.24178 1.28058,2.94922 0.34925,1.70745 0.34925,3.80295 v 11.52527 h -5.78203 v -10.82677 q 0,-2.794 -0.73731,-3.95817 -0.6985,-1.16417 -2.44475,-1.16417 -0.46567,0 -1.31939,0.23284 -0.81492,0.23283 -1.3582,0.58208 0.27164,0.89253 0.34925,1.90148 0.0776,0.97014 0.0776,2.0955 v 11.13721 h -5.78203 z" />
      <path
         id="path20"
         style="font-style:normal;font-variant:normal;font-weight:bold;font-stretch:normal;font-size:38.80559921px;font-family:Ubuntu;-inkscape-font-specification:'Ubuntu Bold';stroke-width:0.26458299"
         d="m 156.18952,142.06184 q 0.85372,0 1.62984,-0.0388 0.77611,-0.0388 1.24177,-0.11642 v -4.38503 q -0.34925,-0.0776 -1.04775,-0.15522 -0.6985,-0.0776 -1.28058,-0.0776 -0.81492,0 -1.55223,0.11642 -0.6985,0.0776 -1.24177,0.34925 -0.54328,0.27164 -0.85373,0.73731 -0.31044,0.46567 -0.31044,1.16417 0,1.35819 0.89253,1.90147 0.93133,0.50447 2.52236,0.50447 z m -0.46567,-16.91924 q 2.56117,0 4.26862,0.58209 1.70744,0.58208 2.71639,1.66864 1.04775,1.08655 1.47461,2.63878 0.42686,1.55222 0.42686,3.4537 v 12.02973 q -1.24177,0.27164 -3.45369,0.62089 -2.21192,0.38806 -5.35518,0.38806 -1.97908,0 -3.60892,-0.34925 -1.59103,-0.34925 -2.75519,-1.12537 -1.16417,-0.81491 -1.78506,-2.0955 -0.62089,-1.28058 -0.62089,-3.14325 0,-1.78506 0.6985,-3.02684 0.73731,-1.24178 1.94028,-1.97908 1.20297,-0.73731 2.7552,-1.04775 1.55222,-0.34926 3.22086,-0.34926 1.12536,0 1.97909,0.11642 0.89253,0.0776 1.4358,0.23284 v -0.54328 q 0,-1.47462 -0.89252,-2.36714 -0.89253,-0.89253 -3.10445,-0.89253 -1.47462,0 -2.91042,0.23283 -1.43581,0.19403 -2.48356,0.58208 l -0.73731,-4.65667 q 0.50448,-0.15522 1.24178,-0.31044 0.77611,-0.19403 1.66864,-0.31045 0.89253,-0.15522 1.86267,-0.23283 1.00895,-0.11642 2.01789,-0.11642 z" />
      <path
         id="path22"
         style="font-style:normal;font-variant:normal;font-weight:bold;font-stretch:normal;font-size:38.80559921px;font-family:Ubuntu;-inkscape-font-specification:'Ubuntu Bold';stroke-width:0.26458299"
         d="m 182.91627,136.04698 q 0,-2.67759 -1.20297,-4.26862 -1.20298,-1.62984 -3.57012,-1.62984 -0.77611,0 -1.43581,0.0776 -0.65969,0.0388 -1.08655,0.11641 v 10.43871 q 0.54328,0.34925 1.397,0.58208 0.89253,0.23284 1.78506,0.23284 4.11339,0 4.11339,-5.5492 z m 5.89845,-0.15523 q 0,2.36714 -0.58208,4.30742 -0.58209,1.94028 -1.70745,3.33729 -1.12536,1.397 -2.794,2.17311 -1.66864,0.77611 -3.84176,0.77611 -1.20297,0 -2.25072,-0.23283 -1.04775,-0.23284 -2.01789,-0.6597 v 7.68351 h -5.78204 v -26.89228 q 0.77611,-0.23283 1.78506,-0.42686 1.00895,-0.23283 2.0955,-0.38806 1.12536,-0.15522 2.25073,-0.23283 1.16417,-0.11642 2.21192,-0.11642 2.52236,0 4.50145,0.77612 1.97908,0.7373 3.33728,2.1343 1.35819,1.3582 2.05669,3.33728 0.73731,1.97909 0.73731,4.42384 z" />
    </g>
  </g>
</svg>
